<?xml version="1.0" encoding="UTF-8"?>
<!DOCTYPE svg PUBLIC "-//W3C//DTD SVG 1.1//EN" "http://www.w3.org/Graphics/SVG/1.1/DTD/svg11.dtd">
<!-- Creator: CorelDRAW -->
<svg xmlns="http://www.w3.org/2000/svg" xml:space="preserve" width="250px" height="80px" version="1.1" style="shape-rendering:geometricPrecision; text-rendering:geometricPrecision; image-rendering:optimizeQuality; fill-rule:evenodd; clip-rule:evenodd"
viewBox="0 0 250 80"
 xmlns:xlink="http://www.w3.org/1999/xlink"
 xmlns:xodm="http://www.corel.com/coreldraw/odm/2003">
 <defs>
  <style type="text/css">
   <![CDATA[
    .fil1 {fill:#6E962C}
    .fil2 {fill:#A61D49}
    .fil3 {fill:#D7477C}
    .fil0 {fill:url(#id0)}
    .fil4 {fill:url(#id1);fill-rule:nonzero}
   ]]>
  </style>
  <linearGradient id="id0" gradientUnits="userSpaceOnUse" x1="42.92" y1="50.73" x2="39.37" y2="34.94">
   <stop offset="0" style="stop-opacity:1; stop-color:#D7477C"/>
   <stop offset="1" style="stop-opacity:1; stop-color:#A61D49"/>
  </linearGradient>
  <linearGradient id="id1" gradientUnits="objectBoundingBox" xlink:href="#id0" x1="3.32247%" y1="56.1004%" x2="92.9691%" y2="41.3224%">
  </linearGradient>
 </defs>
 <g id="Layer_x0020_1">
  <metadata id="CorelCorpID_0Corel-Layer"/>
  <path class="fil0" d="M40.98 37.54l0.01 0.51c-0.44,0.24 -0.53,0.67 -0.25,0.98 0.12,0.14 0.15,0.13 0.31,0.21l0 0.63c-0.24,-0.13 -0.42,-0.22 -0.58,-0.43 -0.33,-0.41 -0.25,-0.46 -0.35,-0.66 -0.15,0.05 -0.33,0.29 -0.48,0.33 0,0.43 0.52,0.98 0.9,1.21 0.22,0.13 0.4,0.14 0.53,0.2 0,0.19 0,0.38 0,0.57 0,0.21 0.03,0.33 0.03,0.57l0.14 0c0,-0.4 0.02,-0.71 0.02,-1.11 1,0 1.58,-0.52 1.79,-1.41 -0.1,0.02 -0.09,0.07 -0.15,0.17 -0.06,0.11 -0.21,0.27 -0.31,0.34 -0.22,0.16 -0.38,0.24 -0.67,0.3 -0.23,0.05 -0.39,0.02 -0.6,0 0,-0.11 0,-0.22 0,-0.33l0.01 -0.28c0.05,-0.21 0.46,-0.15 0.5,-0.64 0.03,-0.31 -0.18,-0.63 -0.43,-0.65l0 -0.59c0.07,0.04 0.47,0.63 1.06,0.91 0.09,0.04 0.14,0.05 0.21,0.09 0.44,0.1 0.68,0.17 1.17,-0.02 0.1,-0.04 0.15,-0.07 0.23,-0.13 0.07,-0.05 0.14,-0.09 0.19,-0.16 0.75,-0.79 0.32,-1.83 -0.15,-2.54l-0.56 -0.85c-0.21,-0.36 -0.28,-0.56 -0.35,-1.06 -0.06,-0.41 0.08,-0.9 0.18,-1.2 0.06,-0.18 0.13,-0.33 0.21,-0.49 0.04,-0.08 0.07,-0.15 0.12,-0.24 0.05,-0.09 0.1,-0.14 0.13,-0.25 -1.04,0.7 -1.38,2.21 -0.74,3.45 0.18,0.36 0.4,0.65 0.52,1.1 0.17,0.68 -0.11,1.3 -0.78,1.3 -0.23,-0.1 -0.17,0.06 -0.83,-0.42 -0.16,-0.13 -0.53,-0.45 -0.64,-0.61 0.06,-0.08 0.12,-0.11 0.18,-0.19 0.08,-0.1 0.11,-0.13 0.19,-0.22 0.15,-0.14 0.28,-0.26 0.39,-0.42 -0.07,-0.3 -0.46,-0.68 -0.69,-2.32 -0.05,-0.36 -0.13,-1.7 -0.15,-2.13 -0.01,-0.22 -0.06,-0.47 -0.08,-0.68 -0.1,0.15 -0.22,2.54 -0.25,2.79 -0.02,0.22 -0.06,0.44 -0.11,0.65 -0.04,0.22 -0.1,0.41 -0.15,0.61 -0.05,0.19 -0.13,0.38 -0.2,0.55 -0.08,0.18 -0.15,0.36 -0.24,0.53l0.81 0.9 -0.36 0.31c-0.34,0.3 -0.86,0.78 -1.38,0.61 -0.57,-0.18 -0.63,-0.94 -0.44,-1.44 0.32,-0.85 0.95,-1.33 0.77,-2.63 -0.05,-0.4 -0.19,-0.73 -0.37,-1.01 -0.12,-0.19 -0.3,-0.44 -0.48,-0.58 -0.07,-0.06 -0.11,-0.12 -0.2,-0.15 0.02,0.09 0.09,0.18 0.14,0.26 0.12,0.23 0.31,0.63 0.38,0.87 0.31,1.05 0.06,1.71 -0.51,2.57 -0.06,0.09 -0.1,0.15 -0.17,0.24 -0.07,0.09 -0.11,0.17 -0.17,0.26 -0.35,0.53 -0.65,1.25 -0.4,1.92 0.24,0.66 0.87,1 1.59,0.89 0.53,-0.07 1.09,-0.47 1.42,-0.88 0.04,-0.06 0.03,-0.06 0.09,-0.11zm3.48 12.25c-0.82,0.27 -2.17,2.02 -3.07,0.52 -0.1,-0.15 -0.2,-0.38 -0.24,-0.58l0 0c-0.22,-0.5 -0.01,-1.46 0.27,-2.01 0.05,-0.1 0.09,-0.15 0.11,-0.25l0.44 -0.58c0.26,-0.35 0.55,-0.58 0.87,-0.86 0.76,-0.66 1.56,-1.15 2.07,-2.11 0.15,-0.28 0.31,-0.66 0.33,-1.05 0.07,-0.83 -0.16,-1.52 -0.77,-2 -0.22,-0.24 -0.75,-0.41 -1.15,-0.41 -0.86,0.01 -1.54,0.5 -1.9,1.21 -0.16,0.32 -0.35,0.78 -0.35,1.23 -0.11,-0.07 -0.09,-0.12 -0.2,-0.2 -0.23,-0.18 -0.51,-0.39 -0.85,-0.39 0.03,-0.17 0.14,-0.27 0.19,-0.48 0.06,-0.22 0.08,-0.34 0.08,-0.63 -0.04,-0.08 -0.02,-0.1 -0.04,-0.21 -0.13,-0.72 -0.71,-1.27 -1.45,-1.39 -0.14,-0.03 -0.31,-0.05 -0.48,-0.02 -0.68,0.08 -1.32,0.51 -1.59,1.15 -0.12,0.27 -0.19,0.53 -0.18,0.93 0,0.25 0.13,0.74 0.27,0.84 -0.16,-0.68 0,-1.22 0.32,-1.61 0.33,-0.41 0.9,-0.69 1.41,-0.53 0.34,0.01 0.8,0.46 0.79,0.97 -0.01,0.2 -0.08,0.42 -0.08,0.52 -0.05,0.09 -0.2,0.51 -0.48,0.98 -0.07,0.11 -0.14,0.19 -0.17,0.32 0.44,0 1.01,-0.32 1.22,-0.63 0.19,0.11 0.36,0.19 0.5,0.37 0.3,0.41 0.41,0.84 0.31,1.37 -0.05,0.29 -0.14,0.46 -0.19,0.7 -0.07,0.08 -0.14,0.28 -0.23,0.42 -0.39,0.59 -1.04,0.99 -1.75,0.64 -0.07,-0.03 -0.15,-0.07 -0.21,-0.11 -0.41,-0.23 -0.76,-0.8 -0.82,-0.85l-0.65 -1.15c-0.04,-0.09 -0.07,-0.14 -0.13,-0.23 -0.09,-0.16 -0.17,-0.3 -0.28,-0.44 -1.11,-1.49 -2.48,-0.85 -2.49,0.07 0,0.25 0.05,0.41 0.14,0.56 0.39,0.65 1.03,0.99 1.79,1.09 0.28,0.03 0.45,-0.03 0.67,-0.05 0.02,0.07 0.03,0.09 0.06,0.16 0.03,0.03 0.07,0.14 0.1,0.2 0.05,0.08 0.08,0.13 0.14,0.21 0.04,0.14 0.12,0.23 0.2,0.34 1.08,1.56 2.86,1.67 3.9,0.26 0.26,-0.37 0.59,-1.04 0.59,-1.66 0,-1.1 -0.25,-0.9 -0.13,-1.32 0.21,-0.74 0.68,-1.51 1.44,-1.76 0.72,-0.23 1.06,0.22 1.19,0.29 0.04,0.07 0.14,0.18 0.24,0.41 0.39,0.92 -0.33,1.83 -0.93,2.43 -0.25,0.25 -0.94,0.78 -1.22,1.05 -0.12,0.12 -0.21,0.22 -0.33,0.33 -0.07,0.07 -0.09,0.1 -0.15,0.17 -0.05,0.07 -0.09,0.1 -0.15,0.18 -0.34,0.44 -0.65,0.89 -0.85,1.43 -0.01,0.05 -0.07,0.22 -0.09,0.24 -0.03,0.18 -0.08,0.31 -0.11,0.5 -0.02,0.16 -0.05,0.36 -0.05,0.55 0,0.35 0.06,0.79 0.16,1.03l0.31 -0.14 0 0 -0.31 0.14c0.07,0.22 0.14,0.39 0.25,0.57 0.05,0.1 0.24,0.4 0.35,0.45l0 0c0.06,0.12 0.27,0.28 0.38,0.36 2.45,0.85 4.4,-3.22 4.27,-3.12 -0.38,0.31 -1.21,1.55 -1.29,1.58zm-3.31 -0.06l-0.05 -0.01c0,0 -0.01,0 -0.01,0 0,0 0.01,0 0.01,0l0.05 0.01z"/>
  <path class="fil1" d="M9.95 51l0 0.05c0.15,0.13 0.37,0.37 0.52,0.53 1.7,1.86 4.47,3.37 6.91,4.06 1.09,0.31 3.3,0.61 3.33,0.63l3.21 0c0.15,-0.06 2.46,-0.37 2.91,-0.46 0.9,-0.19 1.79,-0.44 2.64,-0.72 0.88,-0.3 4.17,-1.51 4.75,-2.01 -0.79,0.12 -1.74,0.4 -2.57,0.57 -4.74,0.95 -11.75,1.52 -15.96,-1.17 -0.51,-0.32 -1.4,-1.02 -1.62,-1.42 0.26,-0.27 1.8,-0.92 2.3,-1.12 5.5,-2.17 11.92,-2.06 17.53,-0.34 0.47,0.14 2.2,0.8 2.48,0.82 -0.13,-0.06 -0.19,-0.14 -0.31,-0.24 -0.15,-0.11 -0.2,-0.13 -0.33,-0.22 -3.67,-2.52 -8.31,-4.2 -12.86,-4.16 -5.34,0.04 -9.2,2.15 -12.93,5.2z"/>
  <path class="fil1" d="M57.24 56.27l3.21 0c0.26,-0.09 1.31,-0.18 1.69,-0.25 2.8,-0.51 6.1,-1.97 8.06,-3.95l1.01 -1.02 0 -0.05c-0.41,-0.33 -0.84,-0.69 -1.29,-1.04 -5.65,-4.4 -12.51,-5.29 -19.31,-2.72 -1.45,0.55 -3.24,1.43 -4.53,2.28l-1.3 0.9 2.53 -0.84c0.91,-0.27 1.79,-0.5 2.73,-0.69 4.04,-0.83 8.21,-0.81 12.21,0.23 1.01,0.26 4.26,1.34 4.85,1.94 -0.25,0.41 -1.15,1.12 -1.67,1.45 -2.14,1.34 -4.77,1.81 -7.39,1.91 -2.73,0.1 -5.9,-0.24 -8.58,-0.78 -0.8,-0.16 -1.76,-0.45 -2.52,-0.55 0.35,0.28 1.77,0.86 2.29,1.08 1.55,0.66 3.44,1.29 5.1,1.64 0.46,0.09 2.76,0.4 2.91,0.46z"/>
  <path class="fil2" d="M25.24 44.85l-1.24 -1.9c-1.18,-1.9 -2.41,-4.87 -2.59,-7.18 1.95,0.11 4.8,1.31 6.48,2.25 0.31,0.18 1.65,1.07 1.82,1.09l0.35 -2.08c-0.55,-0.5 -1.64,-1.09 -2.37,-1.51 -0.79,-0.46 -1.71,-0.86 -2.63,-1.23 -1.76,-0.69 -4.13,-1.39 -6.18,-1.63 0.17,3.77 1.48,8.88 3.74,11.98 0.41,0.57 0.84,0.18 2.62,0.21z"/>
  <path class="fil3" d="M51.11 37.03l0.37 2.09 1.79 -1.1c0.62,-0.34 1.27,-0.67 1.97,-0.97 1.34,-0.57 2.89,-1.12 4.5,-1.29 0.03,1.26 -0.95,3.95 -1.42,4.99 -0.33,0.75 -0.69,1.43 -1.09,2.09l-1.31 2 2.43 0.07c0.08,-0.15 0.28,-0.38 0.4,-0.55 0.96,-1.31 1.77,-3.31 2.25,-4.86 0.59,-1.9 1.19,-4.71 1.28,-6.84 -3.23,0.32 -7.25,1.83 -10.01,3.57 -0.35,0.22 -0.88,0.54 -1.16,0.8z"/>
  <path class="fil3" d="M40.52 20.72c0.24,0.29 0,2.41 0,2.74 0.15,-0.03 0.15,0.43 0.26,0.87 0.52,2.02 1.76,3.86 2.82,5.58 2.9,4.74 5.25,8.36 3.48,14.54 -0.58,2.04 -1.65,3.87 -2.98,5.42 -0.08,0.1 -0.21,0.2 -0.31,0.3 -0.15,0.15 -0.2,0.17 -0.29,0.36 -0.15,1.06 2.48,-1.52 3.93,-3.22 2.68,-3.36 3.17,-8.21 1.27,-12.03 -1.5,-3.04 -2.81,-4.37 -4.52,-6.87 -1.43,-2.08 -2.78,-4.06 -3.36,-6.63 -0.08,-0.37 -0.09,-0.93 -0.24,-1.25l-0.06 0.19z"/>
  <path class="fil2" d="M40.52 23.46c0,-0.33 0.24,-2.45 0,-2.74 -0.35,4.91 -5.74,9.75 -8.08,14.61 -1.88,3.88 -1.37,8.66 1.26,11.95 0.24,0.3 0.45,0.52 0.68,0.79 0.61,0.71 2.39,2.19 3.28,2.46 -0.16,-0.33 -2.44,-2.17 -3.57,-6.03 -2.21,-7.58 1.99,-11.68 5.19,-17.47 0.38,-0.68 1.3,-2.7 1.24,-3.57z"/>
  <path class="fil2" d="M28.47 34.81c-0.14,-1.06 -0.32,-1.83 -0.33,-2.99 -0.01,-0.7 0.08,-2.4 0.31,-2.99 0.81,0.14 2.38,1.53 2.98,2.16 0.28,0.28 0.57,0.64 0.88,0.91l0.29 -0.46c0.21,-0.37 0.74,-1.15 0.82,-1.39 -0.23,-0.32 -0.64,-0.69 -0.95,-0.96 -0.74,-0.63 -0.88,-0.81 -1.84,-1.47 -0.65,-0.45 -2.57,-1.57 -3.53,-1.67 -0.85,1.2 -1.04,7.35 -0.64,7.82 0,0 1.9,1 2.01,1.04z"/>
  <path class="fil3" d="M47.74 30.05l1.11 1.85c0.29,-0.26 0.58,-0.61 0.85,-0.88 0.67,-0.69 2.11,-1.98 3.03,-2.22 0.44,3.04 0.37,3.05 -0.04,6l2.06 -1.05c0.17,-1.36 0.2,-2.83 0.09,-4.19 -0.07,-0.82 -0.41,-3.06 -0.78,-3.61 -1.49,0.16 -3.84,1.86 -4.99,2.79l-1.33 1.31z"/>
  <path class="fil4" d="M74.89 49.65l0 -12.18 4.19 0c0.95,0 1.67,0.06 2.17,0.18 0.7,0.16 1.29,0.45 1.79,0.87 0.64,0.54 1.12,1.24 1.43,2.08 0.33,0.85 0.48,1.81 0.48,2.9 0,0.92 -0.1,1.74 -0.32,2.45 -0.22,0.72 -0.49,1.31 -0.83,1.78 -0.34,0.47 -0.71,0.83 -1.11,1.1 -0.4,0.27 -0.89,0.47 -1.45,0.61 -0.57,0.14 -1.22,0.21 -1.96,0.21l-4.39 0zm1.61 -1.43l2.6 0c0.8,0 1.43,-0.07 1.89,-0.22 0.45,-0.15 0.81,-0.36 1.09,-0.64 0.38,-0.38 0.67,-0.89 0.89,-1.54 0.21,-0.65 0.32,-1.43 0.32,-2.35 0,-1.27 -0.21,-2.25 -0.63,-2.94 -0.42,-0.69 -0.92,-1.14 -1.52,-1.38 -0.43,-0.17 -1.13,-0.25 -2.08,-0.25l-2.56 0 0 9.32z"/>
  <polygon id="_1" class="fil4" points="87.44,49.65 87.44,37.47 89.05,37.47 89.05,49.65 "/>
  <path id="_2" class="fil4" d="M95.36 49.65l-4.71 -12.18 1.75 0 3.16 8.85c0.26,0.71 0.47,1.37 0.64,1.99 0.19,-0.66 0.41,-1.32 0.66,-1.99l3.28 -8.85 1.64 0 -4.75 12.18 -1.67 0z"/>
  <polygon id="_3" class="fil4" points="103.5,49.65 103.5,37.47 105.12,37.47 105.12,49.65 "/>
  <polygon id="_4" class="fil4" points="107.94,49.65 107.94,37.47 109.59,37.47 115.98,47.03 115.98,37.47 117.53,37.47 117.53,49.65 115.87,49.65 109.49,40.09 109.49,49.65 "/>
  <polygon id="_5" class="fil4" points="120.27,49.65 120.27,37.47 129.06,37.47 129.06,38.9 121.88,38.9 121.88,42.64 128.6,42.64 128.6,44.07 121.88,44.07 121.88,48.22 129.35,48.22 129.35,49.65 "/>
  <path id="_6" class="fil4" d="M136.3 49.65l0 -12.18 4.6 0c0.8,0 1.42,0.04 1.85,0.12 0.6,0.1 1.1,0.29 1.5,0.57 0.41,0.28 0.74,0.67 0.98,1.17 0.25,0.5 0.37,1.06 0.37,1.66 0,1.03 -0.33,1.91 -0.99,2.62 -0.66,0.72 -1.85,1.07 -3.57,1.07l-3.12 0 0 4.97 -1.62 0zm1.62 -6.39l3.14 0c1.04,0 1.78,-0.2 2.22,-0.59 0.44,-0.38 0.65,-0.93 0.65,-1.63 0,-0.51 -0.12,-0.95 -0.38,-1.31 -0.26,-0.36 -0.6,-0.6 -1.02,-0.72 -0.27,-0.07 -0.77,-0.11 -1.5,-0.11l-3.11 0 0 4.36z"/>
  <path id="_7" class="fil4" d="M155.62 37.47l1.61 0 0 7.04c0,1.22 -0.14,2.19 -0.41,2.91 -0.28,0.72 -0.78,1.31 -1.5,1.76 -0.72,0.45 -1.67,0.67 -2.84,0.67 -1.14,0 -2.07,-0.19 -2.79,-0.59 -0.73,-0.39 -1.24,-0.96 -1.55,-1.7 -0.31,-0.75 -0.47,-1.76 -0.47,-3.05l0 -7.04 1.62 0 0 7.03c0,1.06 0.1,1.84 0.29,2.34 0.2,0.5 0.54,0.89 1.01,1.16 0.48,0.27 1.06,0.41 1.75,0.41 1.18,0 2.02,-0.27 2.52,-0.81 0.51,-0.54 0.76,-1.57 0.76,-3.1l0 -7.03z"/>
  <path id="_8" class="fil4" d="M159.1 46.19l1.45 -0.2c0.04,0.94 0.21,1.57 0.52,1.92 0.31,0.34 0.74,0.51 1.29,0.51 0.4,0 0.75,-0.09 1.04,-0.27 0.29,-0.19 0.5,-0.44 0.61,-0.76 0.11,-0.32 0.16,-0.83 0.16,-1.52l0 -8.4 1.62 0 0 8.3c0,1.02 -0.13,1.8 -0.37,2.37 -0.25,0.55 -0.64,0.98 -1.17,1.27 -0.54,0.3 -1.16,0.44 -1.88,0.44 -1.07,0 -1.88,-0.3 -2.45,-0.92 -0.57,-0.61 -0.84,-1.53 -0.82,-2.74z"/>
  <path id="_9" class="fil4" d="M167.09 49.65l4.67 -12.18 1.77 0 4.96 12.18 -1.84 0 -1.41 -3.69 -5.12 0 -1.32 3.69 -1.71 0zm3.5 -5l4.15 0 -1.27 -3.38c-0.38,-1.02 -0.67,-1.87 -0.87,-2.54 -0.17,0.8 -0.39,1.58 -0.68,2.35l-1.33 3.57z"/>
  <path id="_10" class="fil4" d="M182.21 49.65l4.68 -12.18 1.77 0 4.95 12.18 -1.83 0 -1.41 -3.69 -5.13 0 -1.32 3.69 -1.71 0zm3.51 -5l4.15 0 -1.27 -3.38c-0.39,-1.02 -0.68,-1.87 -0.88,-2.54 -0.16,0.8 -0.39,1.58 -0.67,2.35l-1.33 3.57z"/>
  <path id="_11" class="fil4" d="M194.36 45.74l1.52 -0.14c0.07,0.61 0.23,1.12 0.5,1.51 0.26,0.39 0.67,0.71 1.22,0.95 0.56,0.24 1.18,0.36 1.87,0.36 0.61,0 1.16,-0.09 1.63,-0.27 0.47,-0.18 0.81,-0.44 1.05,-0.76 0.22,-0.32 0.34,-0.67 0.34,-1.04 0,-0.38 -0.11,-0.71 -0.33,-1 -0.22,-0.28 -0.59,-0.52 -1.1,-0.71 -0.32,-0.13 -1.05,-0.33 -2.17,-0.6 -1.11,-0.27 -1.9,-0.52 -2.34,-0.76 -0.59,-0.3 -1.02,-0.68 -1.3,-1.13 -0.29,-0.45 -0.43,-0.96 -0.43,-1.52 0,-0.62 0.18,-1.19 0.53,-1.72 0.35,-0.54 0.85,-0.94 1.52,-1.22 0.67,-0.28 1.42,-0.42 2.24,-0.42 0.9,0 1.69,0.15 2.38,0.44 0.69,0.29 1.22,0.71 1.59,1.28 0.37,0.57 0.57,1.21 0.6,1.92l-1.55 0.12c-0.08,-0.77 -0.36,-1.35 -0.84,-1.74 -0.48,-0.39 -1.19,-0.59 -2.12,-0.59 -0.98,0 -1.69,0.18 -2.13,0.53 -0.45,0.36 -0.67,0.79 -0.67,1.3 0,0.43 0.16,0.79 0.47,1.08 0.31,0.28 1.12,0.57 2.43,0.86 1.31,0.3 2.21,0.56 2.7,0.78 0.7,0.33 1.23,0.74 1.56,1.24 0.34,0.5 0.51,1.07 0.51,1.72 0,0.65 -0.19,1.26 -0.56,1.83 -0.37,0.57 -0.9,1.02 -1.59,1.34 -0.7,0.31 -1.48,0.47 -2.35,0.47 -1.1,0 -2.02,-0.16 -2.76,-0.48 -0.74,-0.32 -1.33,-0.8 -1.75,-1.45 -0.42,-0.64 -0.64,-1.37 -0.67,-2.18z"/>
  <polygon id="_12" class="fil4" points="209.33,49.65 209.33,38.9 205.31,38.9 205.31,37.47 214.95,37.47 214.95,38.9 210.94,38.9 210.94,49.65 "/>
  <path id="_13" class="fil4" d="M216.65 49.65l0 -12.18 5.4 0c1.08,0 1.91,0.12 2.47,0.33 0.57,0.22 1.02,0.61 1.35,1.16 0.34,0.55 0.51,1.16 0.51,1.83 0,0.87 -0.28,1.6 -0.84,2.19 -0.56,0.59 -1.42,0.96 -2.59,1.13 0.43,0.2 0.75,0.4 0.97,0.6 0.47,0.43 0.92,0.97 1.34,1.62l2.1 3.32 -2.01 0 -1.61 -2.53c-0.47,-0.74 -0.86,-1.3 -1.16,-1.69 -0.31,-0.38 -0.58,-0.65 -0.82,-0.81 -0.24,-0.15 -0.48,-0.26 -0.73,-0.32 -0.18,-0.04 -0.48,-0.06 -0.9,-0.06l-1.86 0 0 5.41 -1.62 0zm1.62 -6.8l3.45 0c0.74,0 1.31,-0.08 1.73,-0.23 0.41,-0.15 0.73,-0.4 0.94,-0.73 0.21,-0.34 0.32,-0.7 0.32,-1.09 0,-0.58 -0.21,-1.06 -0.62,-1.43 -0.42,-0.37 -1.08,-0.55 -1.97,-0.55l-3.85 0 0 4.03z"/>
  <path id="_14" class="fil4" d="M228.4 43.72c0,-2.01 0.55,-3.6 1.63,-4.74 1.09,-1.14 2.49,-1.71 4.21,-1.71 1.12,0 2.13,0.27 3.04,0.81 0.9,0.53 1.59,1.28 2.06,2.24 0.47,0.96 0.71,2.05 0.71,3.26 0,1.23 -0.25,2.34 -0.75,3.31 -0.5,0.98 -1.2,1.71 -2.11,2.21 -0.92,0.5 -1.91,0.75 -2.96,0.75 -1.15,0 -2.17,-0.27 -3.08,-0.83 -0.9,-0.55 -1.58,-1.3 -2.05,-2.26 -0.46,-0.96 -0.7,-1.97 -0.7,-3.04zm1.67 0.03c0,1.47 0.39,2.62 1.18,3.46 0.79,0.84 1.78,1.27 2.97,1.27 1.21,0 2.21,-0.43 2.99,-1.28 0.78,-0.85 1.17,-2.06 1.17,-3.62 0,-0.99 -0.16,-1.86 -0.5,-2.59 -0.33,-0.74 -0.82,-1.31 -1.47,-1.72 -0.64,-0.4 -1.36,-0.61 -2.17,-0.61 -1.13,0 -2.12,0.4 -2.94,1.18 -0.82,0.78 -1.23,2.08 -1.23,3.91z"/>
 </g>
</svg>
